<svg width="30" height="30" viewBox="0 0 30 30" fill="none" xmlns="http://www.w3.org/2000/svg">
<path d="M10.5 6.75C10.5 7.284 10.389 7.791 10.188 8.25H15C15.1989 8.25 15.3897 8.32902 15.5303 8.46967C15.671 8.61032 15.75 8.80109 15.75 9V12H15C14.2044 12 13.4413 12.3161 12.8787 12.8787C12.3161 13.4413 12 14.2044 12 15V15.75H9C8.80109 15.75 8.61032 15.671 8.46967 15.5303C8.32902 15.3897 8.25 15.1989 8.25 15V10.188C7.54249 10.4975 6.75648 10.5803 6 10.425V15C6 15.7956 6.31607 16.5587 6.87868 17.1213C7.44129 17.6839 8.20435 18 9 18H12V21C12 21.7956 12.3161 22.5587 12.8787 23.1213C13.4413 23.6839 14.2044 24 15 24H19.575C19.4217 23.2434 19.5044 22.458 19.812 21.75H15C14.8011 21.75 14.6103 21.671 14.4697 21.5303C14.329 21.3897 14.25 21.1989 14.25 21V18H15C15.7956 18 16.5587 17.6839 17.1213 17.1213C17.6839 16.5587 18 15.7956 18 15V14.25H21C21.1989 14.25 21.3897 14.329 21.5303 14.4697C21.671 14.6103 21.75 14.8011 21.75 15V19.812C22.4575 19.5024 23.2435 19.4196 24 19.575V15C24 14.2044 23.6839 13.4413 23.1213 12.8787C22.5587 12.3161 21.7956 12 21 12H18V9C18 8.20435 17.6839 7.44129 17.1213 6.87868C16.5587 6.31607 15.7956 6 15 6H10.425C10.4745 6.243 10.5 6.4935 10.5 6.75ZM15.75 14.25V15C15.75 15.1989 15.671 15.3897 15.5303 15.5303C15.3897 15.671 15.1989 15.75 15 15.75H14.25V15C14.25 14.8011 14.329 14.6103 14.4697 14.4697C14.6103 14.329 14.8011 14.25 15 14.25H15.75Z" fill="white"/>
<path d="M9 6.75C9 7.34674 8.76295 7.91903 8.34099 8.34099C7.91903 8.76295 7.34674 9 6.75 9C6.15326 9 5.58097 8.76295 5.15901 8.34099C4.73705 7.91903 4.5 7.34674 4.5 6.75C4.5 6.15326 4.73705 5.58097 5.15901 5.15901C5.58097 4.73705 6.15326 4.5 6.75 4.5C7.34674 4.5 7.91903 4.73705 8.34099 5.15901C8.76295 5.58097 9 6.15326 9 6.75Z" fill="white"/>
<path d="M25.5 23.25C25.5 23.8467 25.2629 24.419 24.841 24.841C24.419 25.2629 23.8467 25.5 23.25 25.5C22.6533 25.5 22.081 25.2629 21.659 24.841C21.2371 24.419 21 23.8467 21 23.25C21 22.6533 21.2371 22.081 21.659 21.659C22.081 21.2371 22.6533 21 23.25 21C23.8467 21 24.419 21.2371 24.841 21.659C25.2629 22.081 25.5 22.6533 25.5 23.25Z" fill="white"/>
<path d="M25.5 6.75C25.5 7.34674 25.2629 7.91903 24.841 8.34099C24.419 8.76295 23.8467 9 23.25 9C22.6533 9 22.081 8.76295 21.659 8.34099C21.2371 7.91903 21 7.34674 21 6.75C21 6.15326 21.2371 5.58097 21.659 5.15901C22.081 4.73705 22.6533 4.5 23.25 4.5C23.8467 4.5 24.419 4.73705 24.841 5.15901C25.2629 5.58097 25.5 6.15326 25.5 6.75Z" fill="white"/>
<path d="M9 23.25C9 23.8467 8.76295 24.419 8.34099 24.841C7.91903 25.2629 7.34674 25.5 6.75 25.5C6.15326 25.5 5.58097 25.2629 5.15901 24.841C4.73705 24.419 4.5 23.8467 4.5 23.25C4.5 22.6533 4.73705 22.081 5.15901 21.659C5.58097 21.2371 6.15326 21 6.75 21C7.34674 21 7.91903 21.2371 8.34099 21.659C8.76295 22.081 9 22.6533 9 23.25Z" fill="white"/>
</svg>
