<svg width="25" height="25" viewBox="0 0 25 25" fill="none" xmlns="http://www.w3.org/2000/svg">
<path d="M17.5 0C18.163 0 18.7989 0.263392 19.2678 0.732233C19.7366 1.20107 20 1.83696 20 2.5H2.5V16.4713C1.83696 16.4713 1.20107 16.2079 0.732233 15.739C0.263392 15.2702 0 14.6343 0 13.9713V2.5C0 1.83696 0.263392 1.20107 0.732233 0.732233C1.20107 0.263392 1.83696 0 2.5 0H17.5Z" fill="white"/>
<path d="M15 25L11.6663 21.4713H7.5C6.83696 21.4713 6.20107 21.2079 5.73223 20.739C5.26339 20.2702 5 19.6343 5 18.9713V7.5C5 6.83696 5.26339 6.20107 5.73223 5.73223C6.20107 5.26339 6.83696 5 7.5 5H22.5C23.163 5 23.7989 5.26339 24.2678 5.73223C24.7366 6.20107 25 6.83696 25 7.5V18.9713C25 19.6343 24.7366 20.2702 24.2678 20.739C23.7989 21.2079 23.163 21.4713 22.5 21.4713H18.3337L15 25ZM17.2563 18.9713H22.5V7.5H7.5V18.9713H12.7437L15 21.3587L17.2563 18.9713Z" fill="white"/>
</svg>
