<svg width="320" height="240" viewBox="0 0 320 240" fill="none" xmlns="http://www.w3.org/2000/svg">
<path fill-rule="evenodd" clip-rule="evenodd" d="M109.715 171.897C109.753 169.05 109.835 166.203 109.943 163.358C114.797 162.921 119.652 162.483 124.506 162.046C125.746 161.934 126.985 161.823 128.225 161.711C129.57 161.59 130.916 161.469 132.261 161.348C132.401 161.335 132.59 161.332 132.8 161.328C133.47 161.317 134.356 161.303 134.556 160.966C134.847 160.474 134.698 159.178 134.585 158.195C134.54 157.803 134.501 157.462 134.497 157.241C134.478 156.015 134.459 154.79 134.439 153.565C134.42 152.34 134.401 151.115 134.381 149.89L134.381 149.871C134.24 140.862 134.099 131.853 133.957 122.844C135.12 122.883 136.282 122.917 137.444 122.95C138.197 122.971 138.951 122.994 139.706 123.017C144.015 123.146 148.336 123.276 152.64 123.144C155.177 123.066 157.58 122.382 159.975 121.574C161.248 121.145 162.508 120.678 163.759 120.186C163.874 120.141 164.053 120.047 164.261 119.938C164.765 119.674 165.434 119.323 165.735 119.381C166.246 119.48 167.002 120.575 167.557 121.378C167.761 121.673 167.938 121.93 168.065 122.082C169.572 123.888 171.078 125.693 172.585 127.498L172.651 127.576C172.841 127.805 173.059 128.038 173.281 128.275C173.77 128.798 174.28 129.344 174.58 129.927C174.808 130.371 174.934 130.928 175.054 131.459C175.111 131.71 175.166 131.955 175.23 132.179C177.716 140.868 180.146 149.612 181.957 158.47C182.346 160.376 182.716 162.296 182.933 164.231C182.949 164.379 182.97 164.537 182.991 164.702C183.11 165.61 183.257 166.736 182.904 167.518C182.463 168.496 181.105 168.938 180.128 169.255C180.064 169.276 180.001 169.296 179.941 169.316C178.031 169.945 176.031 170.319 174.052 170.655C169.285 171.464 164.457 171.934 159.639 172.314C159.09 172.358 158.536 172.385 157.98 172.412C157.045 172.457 156.106 172.503 155.188 172.627C154.801 172.679 154.692 172.645 154.636 172.684C154.59 172.715 154.577 172.794 154.479 173.002C154.266 173.455 154.299 174.247 154.327 174.928C154.339 175.23 154.351 175.51 154.339 175.728C154.296 176.565 154.254 177.402 154.211 178.238C154.168 179.075 154.125 179.912 154.082 180.749C153.848 185.313 153.615 189.878 153.381 194.442C153.302 195.985 153.223 197.527 153.144 199.07C152.986 202.155 152.828 205.241 152.67 208.326C152.626 209.179 152.583 210.033 152.539 210.887C152.493 211.787 152.447 212.686 152.401 213.586C152.385 213.89 152.39 214.222 152.394 214.564C152.404 215.276 152.414 216.028 152.244 216.641C152.151 216.977 152.179 217.1 152.132 217.143C152.084 217.187 151.955 217.145 151.525 217.166C150.223 217.228 148.889 217.144 147.566 217.06C146.909 217.018 146.255 216.977 145.608 216.954C144.541 216.916 143.475 216.878 142.408 216.84C141.264 216.799 140.119 216.758 138.975 216.717C138.82 216.711 138.661 216.718 138.506 216.724C138.025 216.744 137.576 216.762 137.383 216.421C137.165 216.031 137.218 215.161 137.26 214.467C137.278 214.177 137.294 213.919 137.287 213.738L137.103 208.591L136.598 194.463C136.487 191.367 136.376 188.271 136.266 185.174C136.147 181.848 136.027 178.522 135.909 175.195C133.451 175.69 130.994 176.184 128.537 176.679L128.532 176.68C124.899 177.411 121.266 178.142 117.632 178.873C117.183 178.963 116.711 179.085 116.227 179.21C114.917 179.547 113.523 179.907 112.266 179.727C110.557 179.482 109.851 178.752 109.755 177.129C109.662 175.572 109.685 174.004 109.707 172.443C109.71 172.261 109.712 172.079 109.715 171.897ZM159.295 144.327L158.685 143.152L158.42 144.448L155.837 157.083L155.714 157.686L156.327 157.645L165.167 157.059L165.882 157.012L165.552 156.376L159.295 144.327ZM156.878 156.669L159.073 145.933L164.39 156.171L156.878 156.669Z" fill="#FF5678"/>
<path fill-rule="evenodd" clip-rule="evenodd" d="M232.715 42.0719C232.535 43.4772 232.663 45.0094 231.077 45.38C229.609 45.7231 227.998 45.6269 226.501 45.7469C224.819 45.8822 223.142 46.0666 221.463 46.2331C219.347 46.4428 219.648 45.6294 219.186 43.8219C218.763 42.1712 218.088 40.5241 217.527 38.9144C217.266 38.1662 216.954 37.4778 216.599 36.7728C216.277 36.1344 216.43 35.2662 216.083 34.7297C214.898 32.8991 209.119 37.9047 208.582 36.9181C209.56 36.1569 211.252 35.305 211.552 34.0025C211.905 32.4716 210.932 32.0144 209.709 32.5741C206.702 33.9522 203.23 35.0291 199.95 35.5312C201.011 34.8222 210.607 29.2325 207.386 27.5744C206.66 27.2007 205.691 27.9042 205.036 28.1702C203.997 28.5927 202.912 28.876 201.828 29.1528C200.685 29.4444 199.539 29.725 198.39 29.9902C197.584 30.1763 196.148 30.8373 195.363 30.6742C194.565 30.5084 195.978 30.0135 196.209 29.8969C197.217 29.3889 198.209 28.8431 199.193 28.2903C200.94 27.3095 202.553 26.1734 203.881 24.657C204.883 23.5128 206.538 21.0141 205.84 19.4319C205.436 18.5148 204.55 17.6672 204.029 16.7983C203.422 15.7835 202.931 14.7018 202.403 13.6445C203.287 14.033 204.278 14.1324 205.18 14.4811C206.082 14.83 206.998 15.1124 207.936 15.3717C209.818 15.892 211.695 15.9844 213.56 16.4064C215.672 16.8838 217.872 17.4177 220.017 17.6937C221.885 17.9336 223.564 18.4447 225.165 19.4631C228.433 21.5433 230.7 24.5317 231.847 28.2272C232.518 30.3921 232.682 32.6509 232.761 34.9034C232.844 37.2781 233.02 39.7075 232.715 42.0719ZM214.374 42.2466C212.092 43.9103 209.432 45.2103 206.983 46.6256C205.581 47.435 204.15 48.1919 202.72 48.9506C201.706 49.4891 200.473 50.4803 199.357 50.7566C198.65 50.9312 198.703 50.9447 198.256 50.3006C197.829 49.6856 197.456 49.0234 197.056 48.39C196.318 47.2222 195.574 46.0587 194.83 44.8953C193.162 42.2875 191.496 39.68 189.743 37.1275C187.984 34.5662 186.298 31.9578 184.594 29.3604C183.802 28.1528 183.015 26.9405 182.175 25.7661C181.533 24.8693 179.888 23.5014 180.669 22.4456C181.395 21.4648 183.048 20.65 184.025 19.9076C185.22 19.0013 186.422 18.1042 187.614 17.1932C190.175 15.2348 192.67 13.1912 195.229 11.2302C197.401 15.0397 199.956 18.6111 202.533 22.1528C200.203 23.6401 197.848 25.0539 195.392 26.3272C193.578 27.2677 190.803 28.5384 189.658 30.3223C188.529 32.0791 189.637 34.1056 191.649 34.1378C192.853 34.1572 194.052 33.8384 195.232 33.6566C196.083 33.525 197.638 32.9112 198.406 33.3437C197.026 34.2244 192.019 36.7903 194.718 39.0403C196.647 40.6484 199.908 38.3016 201.992 38.7847C201.357 40.0037 200.697 41.9481 202.46 42.6109C203.927 43.1628 205.847 42.1344 207.168 41.5891C208.122 41.195 209.07 40.7875 210.008 40.3575C210.754 40.0153 211.648 39.3219 212.445 39.1744C213.375 39.0019 215.269 41.5941 214.374 42.2466ZM171.949 132.09C173.254 131.852 173.925 131.312 174.336 132.897C174.705 134.317 175.07 135.685 175.544 137.079C173.505 137.255 171.706 138.229 170.218 139.599C169.159 140.575 167.053 142.905 167.575 144.539C168.843 148.512 175.251 139.601 176.013 138.648C176.945 140.011 177.288 141.794 177.751 143.352C178.081 144.461 179.305 146.587 177.687 146.856C175.416 147.235 171.155 148.081 171.424 151.297C171.742 155.094 176.572 155.072 179.282 155.243C180.809 155.339 180.817 156.563 181.034 157.933C181.131 158.546 181.435 159.374 180.915 159.822C180.453 160.22 179.038 160.232 178.438 160.36C176.685 160.737 174.933 161.12 173.181 161.496C171.192 161.923 170.14 161.325 168.28 160.78C167.592 160.578 166.9 160.663 166.85 159.893C166.818 159.42 167.282 158.688 167.433 158.22C168.033 156.369 168.544 154.464 168.717 152.52C168.968 149.696 168.654 145.461 165.177 144.91C163.522 144.647 163.204 144.562 162.457 143.009C161.649 141.33 160.366 139.775 160.677 137.841C160.901 136.439 160.522 133.787 161.417 132.625C161.83 132.087 162.637 131.767 163.187 131.372C163.888 130.869 164.563 130.331 165.217 129.767C165.767 129.294 166.437 128.368 167.06 128.027C167.821 127.608 167.844 127.893 168.391 128.546C169.198 129.511 170.482 132.358 171.949 132.09ZM175.639 138.365C175.187 139.278 174.141 140.127 173.475 140.89C172.805 141.657 172.171 142.467 171.423 143.162C170.601 143.927 167.68 145.775 168.323 143.287C168.824 141.353 170.698 139.786 172.348 138.821C172.667 138.634 176.405 136.82 175.639 138.365ZM178.835 147.575C179.125 148.869 179.281 150.204 179.528 151.508C179.655 152.175 180.356 153.786 180.07 154.427C179.586 155.514 175.227 154.227 174.324 153.853C172.173 152.963 171.186 150.677 173.169 149.049C173.921 148.433 178.546 146.28 178.835 147.575ZM181.693 163.126C181.936 164.362 182.646 165.508 181.472 166.442C180.497 167.218 178.9 167.748 177.698 168.024C176.061 168.4 175.535 167.483 174.668 166.303C173.736 165.034 172.744 163.808 171.715 162.617C174.947 161.893 178.179 161.169 181.412 160.446C181.41 161.346 181.519 162.243 181.693 163.126ZM173.948 168.862C172.262 168.775 170.449 169.283 168.739 169.416C166.604 169.583 164.475 169.825 162.338 169.968C162.886 168.222 163.869 166.664 164.638 165.014C165.41 163.358 165.952 163.179 167.727 163.052C169.372 162.933 170.532 162.367 171.746 163.763C173.009 165.214 174.153 166.791 175.306 168.33C174.914 168.592 174.445 168.888 173.948 168.862ZM161.899 169.219C161.483 169.522 160.2 168.661 159.768 168.494C158.928 168.169 158.741 168.064 158.302 167.244C157.925 166.539 157.325 165.738 157.208 164.933C157.052 163.872 157.521 162.475 157.692 161.421C158.147 162.518 159.641 162.646 160.651 162.825C161.414 162.961 163.676 162.745 164.252 163.288C164.888 163.889 163.717 165.564 163.412 166.195C163.048 166.948 162.598 168.71 161.899 169.219ZM161.084 170.089C160.583 170.17 159.143 170.668 159.172 169.754C159.204 168.71 161.186 169.836 161.084 170.089ZM158.546 170.035C158.454 170.914 156.562 170.841 156.519 170.068C156.445 168.76 158.691 168.63 158.546 170.035ZM156.382 146.322C155.898 147.7 152.952 148.193 151.82 148.617C150.787 149.004 147.7 150.792 146.634 150.144C150.241 147.665 153.937 145.236 156.993 142.071C157.118 142.852 156.928 143.506 156.697 144.246C156.489 144.914 156.596 145.712 156.382 146.322ZM155.485 151.346C154.966 154.721 154.457 158.14 153.754 161.482C152.416 161.072 151.312 160.244 149.906 159.955C148.623 159.692 147.298 159.685 146.004 159.877C143.247 160.287 140.789 161.651 138.383 162.98C138.161 160.666 137.701 158.189 137.756 155.867C137.801 153.937 141.102 153.366 142.6 152.569C143.506 152.087 144.325 151.409 145.357 151.241C146.419 151.067 147.444 151.073 148.493 150.749C150.974 149.984 153.308 148.77 155.738 147.866C155.937 149.024 155.661 150.205 155.485 151.346ZM153.167 165.629C153.057 166.396 153.196 167.765 152.611 168.35C152.061 168.901 150.885 168.919 150.159 169.068C147.948 169.523 145.738 169.982 143.53 170.452C142.542 170.662 141.554 170.862 140.562 171.05C140.088 171.139 138.902 171.593 138.503 171.217C138.125 170.859 138.407 169.717 138.427 169.238C138.468 168.28 138.522 167.32 138.462 166.362C138.347 164.526 138.449 163.822 140.158 162.872C141.975 161.862 143.85 161.171 145.895 160.797C147.964 160.418 149.936 160.625 151.907 161.42C152.455 161.641 153.277 161.913 153.532 162.504C153.879 163.308 153.284 164.814 153.167 165.629ZM150.678 195.237C149.867 195.746 148.103 195.659 147.172 195.762C145.668 195.928 144.155 195.833 142.661 195.601C141.537 195.427 139.859 195.185 138.997 194.396C137.773 193.274 139.186 193.223 140.123 193.302C142.847 193.531 145.605 193.371 148.327 193.174C148.857 193.135 150.281 192.67 150.792 192.888C151.445 193.166 151.245 194.881 150.678 195.237ZM149.133 213.363C144.057 212.87 141.115 208.667 139.274 204.371C138.286 202.064 138.642 199.643 138.545 197.204C138.527 196.758 138.247 195.653 138.705 195.32C139.136 195.007 140.877 195.974 141.348 196.089C143.762 196.681 146.432 196.738 148.851 196.163C149.899 195.914 150.486 195.451 150.819 196.49C151.088 197.327 150.648 198.868 150.599 199.745C150.517 201.261 150.754 213.521 149.133 213.363ZM138.993 213.368C138.974 212.632 138.603 205.192 138.963 205.17C140.034 207.48 141.134 209.546 143.083 211.245C144.079 212.114 145.199 212.896 146.444 213.363C146.912 213.538 149.563 213.67 149.693 214.251C149.92 215.267 148.111 214.857 147.574 214.774C147.143 214.708 146.755 214.524 146.333 214.447C145.528 214.302 144.767 214.498 143.958 214.514C142.73 214.539 141.523 214.41 140.294 214.517C139.171 214.613 139.023 214.484 138.993 213.368ZM139.743 179.998C144.088 178.594 147.719 181.254 150.012 184.735C151.32 186.72 151.612 188.108 151.383 190.459C151.302 191.301 151.453 191.87 150.679 192.213C149.913 192.553 148.174 192.301 147.345 192.34C144.962 192.451 142.588 192.599 140.206 192.458C138.658 192.366 138.439 192.104 138.466 190.601C138.498 188.793 138.348 186.992 138.245 185.181C138.134 183.221 137.462 180.736 139.743 179.998ZM138.321 177.393C138.323 176.064 138.244 174.701 138.325 173.374C138.406 172.059 138.966 172.124 140.208 171.899C142.897 171.413 145.583 170.869 148.236 170.21C149.285 169.949 150.471 169.449 151.564 169.445C152.711 169.441 152.65 170.031 152.573 171.046C152.403 173.296 151.991 175.513 151.866 177.75C151.731 180.166 151.66 182.612 151.671 185.03C151.674 185.846 151.873 186.451 151.177 185.687C150.48 184.922 150.139 183.702 149.517 182.842C148.243 181.082 146.349 179.666 144.248 179.069C143.086 178.739 141.864 178.682 140.679 178.921C140.32 178.993 138.52 179.852 138.291 179.683C138.136 179.568 138.321 177.447 138.321 177.393ZM154.217 223.451C155.94 224.685 157.848 225.682 159.78 226.548C160.868 227.035 165.171 228.06 165.308 229.156C165.381 229.741 164.668 230.397 164.201 230.466C163.608 230.553 162.632 230.167 162.029 230.093C159.834 229.827 157.644 229.825 155.503 229.214C151.227 227.994 146.795 227.65 142.475 226.587C141.447 226.334 140.417 226.097 139.384 225.867C138.403 225.649 137.963 225.687 137.928 224.638C137.852 222.337 138.512 219.979 138.518 217.649C142.012 218.048 145.519 218.043 149.023 218.371C150.524 218.511 150.489 218.796 151.148 220.108C151.831 221.469 152.993 222.575 154.217 223.451ZM137.178 148.678C137.133 147.826 137.099 146.972 137.022 146.122C136.97 145.551 136.448 143.956 136.743 143.511C137.092 142.983 137.444 143.306 138.069 143.291C138.893 143.271 139.583 142.94 140.262 142.507C141.548 141.686 142.505 140.606 143.34 139.345C144.075 138.235 143.938 136.719 143.929 135.391C143.906 131.955 144.156 128.604 143.946 125.153C143.85 123.568 145.203 124.541 146.296 124.746C148.083 125.082 150.025 124.849 151.842 124.853C151.774 125.276 148.06 126.325 147.46 126.724C145.924 127.746 145.028 129.38 145.168 131.243C145.45 134.992 149.579 135.619 152.595 135.626C150.093 137.839 147.634 139.949 145.667 142.679C144.217 144.692 141.662 148.661 144.033 150.888C141.938 152.079 139.86 153.403 137.489 153.976C137.383 152.21 137.269 150.445 137.178 148.678ZM136.226 80.2472C137.079 80.7953 137.438 80.0203 138.088 79.6191C139.002 79.0534 139.305 79.1091 139.421 77.8462C139.636 75.5041 138.65 73.3838 137.413 71.4672C136.851 70.5959 136.29 69.5584 135.496 68.8775C134.773 68.2566 134.041 68.4703 133.371 67.8284C133.108 67.5762 133.164 67.22 132.729 67.23C132.443 67.2369 131.746 68.1244 131.51 68.3203C130.762 68.9391 129.848 69.41 128.868 68.8997C127.442 68.1572 127.9 65.4616 129.008 64.5884C129.861 63.9159 130.869 64.02 131.84 63.9112C132.568 63.8303 132.72 63.8619 132.42 63.0284C132.21 62.445 131.726 61.9897 131.487 61.4187C131.028 60.3228 131.128 58.9909 130.929 57.8309C130.751 56.7916 130.334 55.6675 130.349 54.6119C130.369 53.2678 130.808 52.9187 131.973 52.5419C133.101 52.1769 134.035 51.3722 134.996 50.6962C136.084 49.9309 137.275 49.4256 138.393 48.7269C139.152 48.2522 139.641 47.2928 140.476 47.7409C141.467 48.2734 142.516 49.815 143.359 50.6025C142.125 51.3856 141.838 51.7281 142.008 53.2612C142.164 54.6666 142.45 55.9191 143.525 56.8981C143.938 57.2744 144.707 57.5756 145.027 58.0094C145.4 58.5147 145.158 58.0694 145.111 58.6397C145.086 58.9475 144.842 59.1487 144.895 59.5044C145.132 61.0837 146.946 60.1516 147.694 59.6028C150.366 57.6425 145.377 56.0856 144.193 55.3716C143.374 54.8778 142.97 53.3031 144.266 53.7216C145.128 53.9997 147.076 56.3591 147.274 54.2084C149.412 55.4506 150.732 58.0894 152.525 59.7578C153.818 60.9612 155.554 62.2959 154.528 64.2175C153.22 66.6672 150.627 67.7791 148.26 68.8359C145.963 69.8609 146.44 72.7619 147.668 74.5375C148.377 75.5637 149.307 76.1653 150.426 76.6641C151.568 77.1737 151.806 77.7725 152.055 78.9547C152.332 80.2662 152.038 80.7947 150.902 81.4722C149.793 82.1341 148.634 82.775 147.451 83.2928C144.891 84.4128 142.236 84.4837 139.513 84.8653C138.559 84.9991 137.644 85.2778 137.123 84.3319C136.538 83.2672 136.495 81.4341 136.226 80.2472ZM135.814 75.1528C135.174 74.815 133.627 75.9366 132.817 75.9859C131.507 76.0653 130.647 76.0353 129.484 76.7303C127.285 78.0441 125.461 79.7353 123.698 81.5697C121.712 83.6356 119.738 85.7125 117.758 87.7847C116.861 88.7231 115.96 89.6569 115.049 90.5812C114.331 91.31 113.628 92.3347 112.74 92.8547C112.786 92.2372 113.165 91.8 113.299 91.2275C113.377 90.8928 113.241 90.6087 113.291 90.2881C113.308 90.1841 113.587 89.8225 113.63 89.7037C113.743 89.3906 113.882 89.0812 114.017 88.7559C114.142 88.4525 114.124 88.1378 114.251 87.8209C114.382 87.4941 114.741 87.2778 114.866 86.9559C115.231 86.0137 114.627 85.5769 113.661 85.5991C114.038 83.7141 114.204 82.7919 116.175 82.1272C118.058 81.4922 119.898 80.7791 121.627 79.7866C123.163 78.9056 124.444 77.6356 125.921 76.6537C127.243 75.7744 128.888 74.8531 128.875 73.05C129.624 73.5584 130.327 73.9862 131.184 73.48C131.908 73.0528 132.003 72.7087 132.84 72.6281C133.523 72.5628 133.946 72.5453 134.555 72.8456C135.273 73.1987 135.37 73.4444 135.788 72.4047C136.263 72.8041 137.463 74.4681 137.423 75.1269C137.401 75.4897 137.346 75.6534 136.896 75.7491C136.258 75.8847 136.283 75.3997 135.814 75.1528ZM132.827 173.639C132.515 174.117 131.201 174.028 130.693 174.022C129.146 174.002 128.605 172.703 127.926 171.449C126.856 169.47 125.257 165.361 127.012 163.285C128.398 161.646 131.097 163.711 132.043 164.948C132.859 166.018 132.617 167.621 132.693 168.904C132.757 169.986 133.443 172.696 132.827 173.639ZM128.6 174.355C127.981 174.974 125.974 174.843 125.154 174.976C123.691 175.212 122.237 175.497 120.817 175.929C119.761 176.251 118.716 177.116 118.438 175.643C118.204 174.405 118.32 172.92 118.343 171.67C118.367 170.322 118.508 168.991 118.625 167.648C118.704 166.741 118.506 165.071 119.247 164.374C119.885 163.773 121.438 163.716 122.267 163.517C123.629 163.19 125.051 162.761 126.466 162.908C125.641 165.148 125.571 167.499 126.456 169.732C126.708 170.369 128.982 173.973 128.6 174.355ZM118.196 165.427C117.851 168.798 117.504 172.191 117.836 175.579C117.856 175.781 118.098 176.706 117.993 176.851C117.884 177.001 117.025 177.079 116.83 177.125C116.055 177.308 115.281 177.503 114.502 177.667C112.984 177.984 112.786 177.025 112.488 175.618C111.85 172.605 113.087 169.338 113.836 166.444C114.201 165.034 114.472 164.872 115.858 164.755C116.822 164.674 118.342 163.995 118.196 165.427ZM112.336 178.004C111.756 178.532 111.176 176.043 111.125 175.789C110.922 174.782 111.035 173.76 111.038 172.738C111.043 171.139 110.921 169.549 110.918 167.959C110.917 167.098 110.272 165.34 111.29 164.885C111.589 164.751 112.776 164.807 113.045 164.982C113.604 165.348 113.384 165.584 113.218 166.22C112.847 167.646 112.526 169.079 112.203 170.517C111.886 171.926 111.573 173.283 111.724 174.739C111.774 175.22 112.705 177.668 112.336 178.004ZM130.831 162.297C132.244 161.899 132.32 162.982 132.318 164.018C132.102 163.853 130.093 162.505 130.831 162.297ZM111.92 86.2037C111.574 86.7747 109.38 86.9306 108.753 87.0809C107.519 87.3762 106.285 87.6697 105.055 87.9775C102.75 88.5537 100.502 89.2037 98.1394 89.5053C99.4369 87.4281 99.8407 85.6344 99.5991 83.0419C99.2947 79.7687 98.9075 76.5291 98.1541 73.3253C97.4113 70.1659 96.5513 67.0278 95.7228 63.8897C95.316 62.3478 94.876 60.8356 94.3347 59.3353C93.901 58.1331 93.2231 56.6194 93.9597 55.3869C95.8285 56.7503 97.3275 58.2194 98.3935 60.2906C99.5353 62.5109 100.533 64.7903 101.858 66.9147C102.464 67.8859 103.172 68.7716 103.82 69.7116C104.205 70.2709 104.486 71.0781 104.978 71.55C105.544 72.0938 106.148 72.3503 106.471 71.4325C106.818 70.4475 105.711 68.4987 105.384 67.5737C104.594 65.3409 103.811 63.1125 103.202 60.8222C102.71 58.9706 101.895 56.7322 102.183 54.7787C102.469 52.8447 103.781 54.2291 104.445 55.1281C105.814 56.9819 106.633 59.1425 107.533 61.2441C108.359 63.1747 109.323 65.0156 110.238 66.9016C110.556 67.5578 110.976 69.2531 111.809 69.4481C113.021 69.7322 112.918 68.0259 112.802 67.3337C112.034 62.7441 110.03 58.3497 109.614 53.6806C109.594 53.4575 109.304 51.7228 109.538 51.5778C109.989 51.2969 110.598 53.0569 110.793 53.4881C111.807 55.7309 112.513 58.0953 113.16 60.4644C113.711 62.4794 114.209 64.5094 114.828 66.5053C115.167 67.6022 115.557 68.6809 115.941 69.7631C116.288 70.7434 116.64 72.4184 117.546 73.0644C118.831 73.9806 123.429 71.8022 123.895 73.7497C124.226 75.1341 119.963 76.2491 119.055 76.6694C117.859 77.2228 116.687 77.8287 115.491 78.3828C114.586 78.8019 113.284 78.9737 112.629 79.7622C111.936 80.5975 111.824 81.7706 111.804 82.8069C111.788 83.5912 112.331 85.5269 111.92 86.2037ZM109.014 101.321C108.954 101.756 108.608 102.332 108.452 102.746C108.136 103.589 107.866 104.597 107.426 105.385C107.047 106.064 106.488 106.671 106.121 107.36C105.774 108.013 105.728 108.767 105.322 109.422C104.858 110.17 104.091 110.707 103.63 111.451C103.403 111.817 103.168 112.236 102.847 112.627C101.71 114.01 100.581 115.315 99.6669 116.797C99.4331 117.176 98.291 118.832 97.8366 118.922C96.8863 119.108 97.9922 117.758 98.1782 117.478C99.5244 115.458 100.72 113.331 102.019 111.279C103.278 109.292 104.566 107.321 105.778 105.305C106.766 103.661 107.449 101.3 109.054 100.142C109.06 100.536 109.048 100.929 109.014 101.321ZM152.913 82.7522C153.695 85.9672 154.63 89.0825 155.512 92.2687C156.33 95.225 157.418 98.3887 157.758 101.437C158.093 104.456 158.865 107.51 159.903 110.376C160.383 111.702 160.877 113.033 161.398 114.343C161.683 115.063 162.003 115.767 162.328 116.47C162.581 117.017 163.247 117.901 163.273 118.48C163.293 118.944 163.454 118.758 162.996 119.107C162.523 119.467 161.702 119.337 161.15 119.4C159.711 119.567 158.308 120.108 156.905 120.458C154.199 121.135 150.974 121.672 148.202 121.201C147.036 121.003 145.824 120.831 144.671 120.573C143.252 120.256 142.961 119.669 142.669 118.274C142.033 115.225 141.484 112.184 140.958 109.115C140.333 105.464 139.656 101.818 139.173 98.1444C138.686 94.4281 138.336 90.7081 137.572 87.0322C140.653 87.5475 143.554 88.1294 146.644 87.2853C149.38 86.5378 151.356 85.0766 152.913 82.7522ZM164.973 122.554C165.661 123.974 164.001 125.25 163.197 126.343C162.136 127.785 161.145 129.29 159.911 130.594C159.541 129.112 159.216 127.446 158.228 126.229C156.967 124.676 155.494 125.31 153.949 124.575C155.569 123.787 157.639 124.088 159.358 123.385C161.054 122.691 162.767 122.147 164.345 121.246C164.555 121.682 164.762 122.119 164.973 122.554ZM158.962 155.674C157.926 155.731 158.619 153.547 158.686 153.004C158.871 151.512 159.058 150.019 159.22 148.525C160.075 150.778 160.929 153.032 161.783 155.286C160.844 155.42 159.911 155.621 158.962 155.674ZM157.277 166.478C157.418 166.792 158.077 167.839 157.557 168.032C156.843 168.296 156.758 166.562 157.277 166.478ZM156.041 142.198C152.741 144.832 149.463 147.474 145.893 149.742C145.111 150.239 144.323 150.447 143.804 149.462C143.397 148.687 143.827 147.814 144.089 147.055C144.755 145.121 145.917 143.44 147.203 141.866C149.774 138.722 152.833 136.038 156.737 134.798C157.375 134.596 158.361 133.984 158.585 134.829C158.717 135.326 158.159 136.567 158.046 137.033C157.58 138.959 157.682 140.888 156.041 142.198ZM165.54 161.413C165.613 163.65 159.497 161.846 158.735 161.446C159.534 161.177 165.507 160.407 165.54 161.413ZM167.811 161.427C168.174 161.524 169.568 161.647 169.048 162.123C168.582 162.549 166.472 162.378 165.912 162.431C166.288 161.196 166.573 161.097 167.811 161.427ZM166.678 158.43C166.541 158.928 166.486 159.687 166.04 160.028C165.484 160.453 164.303 160.195 163.674 160.198C162.605 160.204 161.538 160.259 160.475 160.365C160.068 160.405 158.42 160.902 158.038 160.563C157.758 160.314 157.863 159.147 158.067 158.884C158.486 158.345 159.45 158.532 160.054 158.51C162.266 158.431 164.465 158.425 166.678 158.43ZM165.258 150.161C164.946 149.697 164.89 149.702 164.757 149.001C164.615 148.251 164.253 147.609 164.04 146.885C163.572 145.29 165.068 145.432 166.166 146.017C169.013 147.533 168.326 152.834 167.622 155.316C166.598 154.563 166.22 154.222 165.868 153.007C165.734 152.546 165.584 152.092 165.445 151.634C165.342 151.296 165.413 150.392 165.258 150.161ZM165.505 124.363C166.3 124.267 167.027 126.733 166.8 127.267C166.335 128.359 164.559 129.334 163.654 130.031C163.052 130.495 162.454 131.027 161.81 131.432C161.213 131.807 160.869 131.597 160.313 131.777C159.509 132.037 159.314 132.888 158.491 133.254C157.333 133.768 155.929 133.912 154.72 134.377C153.253 134.941 151.907 134.956 150.368 134.689C148.156 134.305 145.562 133.207 145.761 130.518C146.113 125.774 155.535 123.343 158.104 127.366C158.773 128.412 158.763 129.633 159.197 130.758C159.667 131.975 160.123 131.497 160.831 130.6C161.756 129.427 162.616 128.191 163.505 126.99C163.793 126.602 164.931 124.433 165.505 124.363ZM107.763 170.556C107.718 171.363 107.766 172.181 107.486 172.951C107.203 173.727 106.63 174.355 106.3 175.11C105.63 176.639 105.635 178.489 105.662 180.128C105.724 183.94 106.627 187.643 107.105 191.41C105.515 191.406 103.872 191.424 102.332 190.969C100.956 190.563 100.736 189.558 100.347 188.291C99.2544 184.732 98.0744 181.188 97.7216 177.461C97.5538 175.684 97.4832 173.894 97.4028 172.112C97.3328 170.549 97.6838 169.867 99.0947 169.093C102.162 167.411 105.341 166.01 108.377 164.247C108.067 166.338 107.881 168.446 107.763 170.556ZM238.699 45.6437C237.953 45.5066 237.198 45.4209 236.445 45.3309C236.052 45.2841 234.827 45.3494 234.532 45.0931C234.182 44.7881 234.788 42.4819 234.819 41.9869C235.009 39.0109 234.789 35.9428 234.516 32.9781C234.022 27.6108 232.334 22.6384 228.439 18.7736C226.501 16.8498 224.322 15.3235 221.674 14.5869C220.132 14.1577 218.543 13.9289 216.997 13.5128C215.75 13.1766 214.587 12.7919 213.291 12.6587C210.708 12.393 208.346 11.4168 205.825 10.8521C203.97 10.4366 200.986 9.45115 199.784 11.5456C198.837 10.4354 197.885 9.60178 196.691 8.77362C195.548 7.98037 195.361 7.18799 193.96 8.10396C191.239 9.88384 188.691 12.0551 186.15 14.0801C183.777 15.9713 181.48 17.9519 178.993 19.691C176.456 21.4651 176.937 24.4756 178.13 26.9713C180.374 31.6691 183.836 35.685 186.867 39.7116C188.765 42.2341 190.669 44.76 192.56 47.2875C194.368 49.7031 195.931 52.4991 198.043 54.6694C199.375 56.0375 200.964 54.2484 202.166 53.4219C203.658 52.395 205.123 51.33 206.616 50.3062C209.726 48.1737 213.054 46.1762 216.337 44.32C216.576 44.9969 216.814 45.6737 217.053 46.3509C216.332 46.405 215.358 46.2437 214.991 47.0191C214.467 48.1262 215.753 48.2716 215.979 48.9066C216.18 49.4734 215.354 50.9709 215.11 51.4819C214.561 52.6331 213.793 53.6256 212.948 54.5731C209.605 58.3234 205.373 61.0059 201.081 63.5628C196.487 66.2984 191.563 67.9687 186.533 69.7316C183.976 70.6278 181.322 71.0444 178.683 71.6181C176.14 72.1712 173.599 72.8978 171 73.1066C165.684 73.5331 160.043 73.8528 154.79 72.7062C154.215 72.5809 153.607 72.3091 153.022 72.2575C152.553 72.2159 152.206 72.4125 151.763 72.4378C150.813 72.4922 150.268 71.6422 149.513 72.4319C149.135 72.8269 149.129 73.49 148.602 72.7528C147.933 71.815 149.644 71.6337 150.279 71.3666C152.414 70.4669 154.131 68.6559 155.488 66.825C156.844 64.9956 157.039 63.0419 156.214 60.9C155.388 58.7591 153.511 57.3078 152.102 55.5691C151.42 54.7272 150.793 53.8366 150.044 53.0506C149.644 52.6309 149 52.2291 148.975 51.8056C148.946 51.3134 149.241 51.0691 149.065 50.4709C149.019 50.3153 148.824 50.2269 148.782 50.0559C148.716 49.7834 148.818 49.5497 148.784 49.2841C148.705 48.6753 148.466 48.2928 148.128 47.7941C147.918 47.4822 147.609 46.8581 147.32 46.6247C146.812 46.2153 146.119 46.3822 145.603 45.9672C144.786 45.3109 144.499 43.9281 143.776 43.1312C142.759 42.01 142.542 43.1428 141.464 42.7856C140.543 42.4797 140.553 41.0928 139.808 40.6237C138.759 39.9631 137.876 41.1787 136.944 41.4494C135.719 41.8056 136.19 40.4228 135.097 40.2969C134.111 40.1831 132.744 42.1841 132.253 42.8947C131.751 42.3106 131.203 41.3153 130.301 41.6719C129.355 42.0462 129.186 43.7887 128.494 44.4103C128.253 44.6266 128.304 44.7859 128.008 44.8856C127.624 45.0137 127.114 44.4578 126.619 44.6272C125.62 44.9694 125.742 46.3025 125.74 47.1662C124.561 46.9941 123.739 46.9062 123.344 48.1766C122.958 49.42 122.811 48.8712 121.568 49.2753C120.497 49.6231 120.347 50.6406 120.17 51.6356C120.061 52.2544 120.162 52.5072 120.329 53.0712C120.539 53.7819 120.539 53.7731 120.196 54.4512C119.6 55.635 119.564 56.9387 119.469 58.2412C119.368 59.6309 119.124 60.8962 119.519 62.2537C119.763 63.0937 119.782 64.2369 120.605 64.7072C120.931 64.8937 121.486 64.7916 121.763 64.9766C122.293 65.3297 122.132 65.8669 122.485 66.3825C122.75 66.7684 123.177 66.8056 123.473 67.1184C123.795 67.4591 123.814 67.8737 123.998 68.2894C124.541 69.52 125.052 70.1153 123.281 70.1856C122.189 70.2291 121.023 70.5566 119.935 70.4559C118.652 70.3378 118.332 69.62 117.923 68.5272C115.864 63.0203 114.757 57.0516 112.044 51.815C111.449 50.665 109.004 45.9678 107.971 49.3903C107.099 52.2769 108.243 55.7997 108.681 58.6728C107.306 57.4334 106.797 55.2006 105.753 53.6872C104.981 52.5691 102.566 49.8234 101.15 51.3969C100.034 52.6369 100.313 55.2666 100.519 56.7491C100.844 59.0947 101.594 61.355 102.129 63.6556C101.455 62.7737 101.123 61.6972 100.655 60.7044C100.068 59.4594 99.3366 58.2781 98.5025 57.1841C97.7738 56.2281 96.9588 55.3394 96.075 54.5244C95.3997 53.9009 94.1903 52.5366 93.2313 52.4628C90.7628 52.2734 91.5391 56.8012 91.915 58.0956C92.6944 60.7787 93.5391 63.3878 94.1441 66.1247C95.3266 71.4722 96.7588 76.6962 97.63 82.1119C97.8228 83.3125 98.055 84.2709 97.5803 85.4253C97.1616 86.4422 96.7275 87.6581 95.9553 88.44C94.2075 90.2106 92.7563 92.1012 91.4497 94.2347C90.0503 96.5197 88.6097 98.8312 87.4675 101.257C86.9422 102.373 86.5125 103.58 85.9088 104.653C85.3638 105.622 84.7088 106.388 84.3213 107.461C82.47 112.586 81.0994 117.622 80.4719 123.05C79.9566 127.506 80.4366 133.433 85.8166 134.476C88.2882 134.955 90.5072 133.859 92.736 132.954C95.041 132.019 96.7078 130.498 98.5878 128.882C100.924 126.873 103.35 124.989 105.711 123.015C108.073 121.039 110.255 118.847 112.604 116.851C114.924 114.877 117.024 112.782 119.03 110.491C121.021 108.218 122.638 105.701 124.565 103.396C124.558 106.38 124.115 109.336 123.991 112.316C123.878 115.048 123.875 117.777 123.985 120.507C124.095 123.237 123.374 125.834 123.368 128.557C123.362 131.213 123.257 133.854 123.199 136.508C123.173 137.698 122.939 139.033 123.384 140.182C123.716 141.039 124.76 141.307 125.651 141.538C127.027 141.896 131.167 141.208 131.782 142.678C132.118 143.48 131.779 144.941 131.806 145.827C131.849 147.288 131.903 148.749 131.953 150.21C132.005 151.718 132.055 153.227 132.11 154.735C132.159 156.064 132.417 157.545 132.257 158.86C132.12 159.988 131.463 159.841 130.42 159.898C128.848 159.985 127.274 160.055 125.701 160.124C123.392 160.225 120.983 160.179 118.77 160.451C117.841 160.566 116.825 160.517 115.845 160.703C114.615 160.937 113.48 160.997 112.233 161.058C111.227 161.108 109.935 161.035 109.145 161.778C108.871 162.036 108.809 162.344 108.615 162.631C108.251 163.168 108.454 163.027 107.857 163.148C105.525 163.62 103.31 164.153 101.03 164.948C99.8882 165.346 98.8291 165.88 97.6822 166.254C96.6772 166.582 95.9407 166.986 95.4438 167.973C94.5563 169.735 94.781 172.284 94.8453 174.183C94.9466 177.146 95.6047 179.967 96.3144 182.832C97.0528 185.813 97.6319 188.873 99.0685 191.612C99.5403 192.512 100.05 193.66 101.014 194.129C102.259 194.734 104.173 194.367 105.532 194.37C106.443 194.371 108.885 194.684 109.567 193.92C110.227 193.18 109.563 191.092 109.47 190.173C109.143 186.954 108.555 183.704 108.563 180.463C109.307 181.562 110.596 183.459 111.887 181.775C112.204 181.361 112.08 181.168 112.644 180.928C112.956 180.795 113.614 180.714 113.954 180.737C114.416 180.768 114.587 180.954 115.011 180.863C115.387 180.782 115.81 180.446 116.241 180.343C121.583 179.074 126.893 177.705 132.258 176.574C133.676 176.275 133.475 177.364 133.568 178.59C133.672 179.947 133.474 181.316 133.663 182.658C133.826 183.824 133.954 184.962 133.723 186.135C133.451 187.52 133.626 188.675 133.897 190.046C134.941 195.333 134.754 201.068 134.989 206.442C135.112 209.24 134.849 212.098 135.112 214.882C135.212 215.933 135.798 216.514 136.036 217.47C136.309 218.569 135.565 219.967 135.338 221.031C134.883 223.167 134.083 226.223 135.546 228.081C136.336 229.085 137.372 229.231 138.541 229.57C139.941 229.976 141.32 230.449 142.726 230.834C147.863 232.24 153.415 232.515 158.681 233.29C159.97 233.48 161.166 233.462 162.463 233.372C163.263 233.317 165.233 233.58 165.898 233.101C166.255 232.845 166.074 232.524 166.255 232.211C166.513 231.766 166.824 231.586 167.262 231.309C167.988 230.85 168.826 230.583 168.949 229.636C169.248 227.318 166.352 226.091 164.803 225.088C162.824 223.808 160.433 223.313 158.333 222.267C157.174 221.69 156.056 221.037 154.939 220.382C154.455 220.098 153.474 219.777 153.136 219.33C152.792 218.874 153.129 218.223 153.272 217.572C153.86 214.879 153.661 212.126 153.966 209.405C154.27 206.68 154.188 203.938 154.288 201.199C154.391 198.378 154.624 195.564 154.803 192.747C154.968 190.146 155.134 187.502 155.161 184.898C155.187 182.483 155.517 180.114 155.594 177.683C155.621 176.858 155.473 175.362 156.021 174.663C156.501 174.05 158.092 174.127 158.833 174.019C160.833 173.729 162.736 173.475 164.713 173.3C169.418 172.883 174.653 172.577 179.102 170.937C180.936 170.261 183.378 169.337 183.986 167.231C184.686 164.809 183.773 161.832 183.742 159.357C183.71 156.713 182.943 154.134 182.369 151.572C181.75 148.815 181.36 146.01 180.692 143.263C180.078 140.742 179.083 138.51 178.142 136.117C177.76 135.146 175.586 131.801 176.261 130.977C176.624 130.532 177.932 130.42 178.463 130.216C179.607 129.779 180.753 129.281 181.808 128.657C183.217 127.825 186.301 126.448 186.443 124.598C186.579 122.83 184.842 121.044 183.958 119.655C182.536 117.418 180.741 115.462 179.386 113.181C176.648 108.57 174.47 103.52 172.474 98.5516C171.429 95.9522 171.088 93.5044 170.916 90.7297C173.949 90.7369 177.036 91.11 180.049 90.6859C183.329 90.2244 186.613 89.4469 189.864 88.8062C195.784 87.6394 201.468 86.3219 206.953 83.6944C212.088 81.2341 217.3 78.5412 221.552 74.6356C223.751 72.6162 225.993 70.5581 227.892 68.2487C229.843 65.8766 231.31 63.1812 232.815 60.5181C234.476 57.5784 235.798 54.4891 236.843 51.2737C237.053 50.6272 237.054 49.8041 237.323 49.1934C237.627 48.5041 238.179 48.4859 238.756 48.1228C239.567 47.6119 240.107 45.9022 238.699 45.6437Z" fill="black"/>
<path fill-rule="evenodd" clip-rule="evenodd" d="M168.091 12.7373C168.784 13.3329 171.772 15.4309 172.737 14.9208C173.928 14.291 172.043 12.394 171.535 11.9263C170.889 11.3313 168.581 9.53131 167.697 9.6984C165.931 10.0326 167.467 12.2013 168.091 12.7373Z" fill="black"/>
<path fill-rule="evenodd" clip-rule="evenodd" d="M169.567 34.2694C169.958 33.4984 171 33.215 171.482 32.4691C172.062 31.5722 172.328 30.7873 172.114 29.6875C170.631 30.1869 168.943 31.6984 167.95 32.8803C167.121 33.8681 165.942 35.9322 168.107 35.9375C168.088 35.6437 168.069 35.3494 168.05 35.0559C168.7 35.1503 169.272 34.8503 169.567 34.2694Z" fill="black"/>
<path fill-rule="evenodd" clip-rule="evenodd" d="M162.499 21.443C163.456 21.7179 164.245 21.679 165.222 21.7005C165.931 21.7163 166.9 22.1061 167.475 21.6667C166.965 21.3714 167.609 21.3551 167.483 21.0672C167.377 20.8271 167.176 20.9057 167.012 20.7114C166.428 20.019 165.921 20.0274 164.995 19.8834C164.278 19.7713 163.223 19.5127 162.534 19.8693C161.809 20.2446 161.528 21.1638 162.499 21.443Z" fill="black"/>
<path fill-rule="evenodd" clip-rule="evenodd" d="M176.113 42.6809C176.732 42.1622 177.406 40.6603 177.531 39.8853C177.58 39.5816 177.362 39.3491 177.388 39.1256C177.438 38.6997 178.313 37.8766 177.396 37.5272C176.594 37.2213 175.84 39.5975 175.637 40.116C175.428 40.6463 174.858 41.6794 175.033 42.1922C175.178 42.6178 175.696 43.0309 176.113 42.6809Z" fill="black"/>
<path fill-rule="evenodd" clip-rule="evenodd" d="M183.513 10.5195C184.073 10.0001 184.427 9.41101 184.369 8.69673C184.323 8.13408 183.902 6.1942 183.427 6.25123C181.853 6.44129 182.561 11.404 183.513 10.5195Z" fill="black"/>
<path fill-rule="evenodd" clip-rule="evenodd" d="M150.27 97.249C150.141 96.7746 149.67 93.8746 148.855 94.0721C148.236 94.2221 148.879 96.7743 148.908 97.1103C148.968 97.8128 147.618 97.7896 146.99 97.6946C145.995 97.5443 146.075 96.9612 145.926 96.0565C145.87 95.7146 145.655 94.1693 144.942 94.7353C144.46 95.1178 144.804 97.0231 144.844 97.4578C144.983 98.9637 145.147 101.535 146.042 102.902C146.399 103.448 146.72 103.717 147.095 103.017C147.474 102.31 146.615 100.152 146.465 99.4287C147.173 99.4978 149.213 99.2681 149.64 100.004C150.029 100.676 149.406 102.595 150.656 102.75C151.398 102.843 151.263 101.984 151.192 101.323C151.042 99.9368 150.636 98.5878 150.27 97.249Z" fill="black"/>
<path fill-rule="evenodd" clip-rule="evenodd" d="M152.17 96.5781C151.349 96.9491 152.38 102.358 153.581 102.183C154.983 101.979 152.953 96.2247 152.17 96.5781Z" fill="black"/>
<path fill-rule="evenodd" clip-rule="evenodd" d="M151.255 94.7872C151.154 96.005 152.736 96.4588 152.811 95.1354C152.869 94.1144 151.361 93.5069 151.255 94.7872Z" fill="black"/>
<path fill-rule="evenodd" clip-rule="evenodd" d="M142.568 62.4988C143.29 65.1913 149.867 66.3366 148.981 62.7053C148.537 60.8872 146.684 62.5025 145.39 62.291C144.553 62.1541 142.059 60.6 142.568 62.4988Z" fill="black"/>
<path fill-rule="evenodd" clip-rule="evenodd" d="M140.916 57.6959C141.226 56.2553 138.074 54.665 136.93 55.0616C135.257 55.6422 135.265 59.3531 136.541 60.3397C136.709 60.4694 137.223 60.7791 137.476 60.5322C137.873 60.1419 137.439 60.2484 137.346 59.8588C137.198 59.2391 136.716 58.4434 137.196 57.7381C138.104 56.4062 140.473 59.7603 140.916 57.6959Z" fill="black"/>
<path fill-rule="evenodd" clip-rule="evenodd" d="M131.307 64.6891C130.17 64.6253 129.238 66.3891 130.91 66.2413C131.231 66.2128 131.918 66.1322 132.104 65.7959C132.412 65.2388 131.806 64.7172 131.307 64.6891Z" fill="black"/>
<path fill-rule="evenodd" clip-rule="evenodd" d="M186.432 22.6445C186.043 22.0819 185.227 21.1766 184.526 21.7409C183.904 22.2413 184.012 23.4763 184.251 24.09C184.893 25.7423 186.409 27.2142 188.125 26.2623C187.529 25.0681 187.193 23.7458 186.432 22.6445Z" fill="black"/>
</svg>
